# AST/ASF file generated using VICON BodyLanguage
# -----------------------------------------------
:version 1.10
:name VICON
:units
  mass 1.0
  length 0.45
  angle deg
:documentation
   .ast/.asf automatically generated from VICON data using
   VICON BodyBuilder and BodyLanguage model FoxedUp or BRILLIANT.MOD
:root
   order TX TY TZ RX RY RZ
   axis XYZ
   position 0 0 0  
   orientation 0 0 0 
:bonedata
  begin
     id 1 
     name lhipjoint
     direction 0.541323 -0.757556 0.364798 
     length 2.47576 
     axis 0 0 0  XYZ
  end
  begin
     id 2 
     name lfemur
     direction 0.34202 -0.939693 0  
     length 7.46493  
     axis 0 0 20  XYZ
    dof rx ry rz
    limits (-160.0 20.0)
           (-70.0 70.0)
           (-60.0 70.0)
  end
  begin
     id 3 
     name ltibia
     direction 0.34202 -0.939693 0   
     length 7.73805   
     axis 0 0 20   XYZ
    dof rx
    limits (-10.0 170.0)
  end
  begin
     id 4 
     name lfoot
     direction 0.107174 -0.294458 0.949636   
     length 2.25864   
     axis -90 7.62852e-016 20   XYZ
    dof rx rz
    limits (-45.0 90.0)
           (-70.0 20.0)
  end
  begin
     id 5 
     name ltoes
     direction 1.53606e-011 -4.21934e-011 1   
     length 1.12451   
     axis -90 7.62852e-016 20   XYZ
    dof rx
    limits (-90.0 20.0)
  end
  begin
     id 6 
     name rhipjoint
     direction -0.524745 -0.766967 0.36933   
     length 2.44538  
     axis 0 0 0  XYZ 
  end
  begin
     id 7 
     name rfemur
     direction -0.34202 -0.939693 0   
     length 7.61604   
     axis 0 0 -20   XYZ
    dof rx ry rz
    limits (-160.0 20.0)
           (-70.0 70.0)
           (-70.0 60.0)
  end
  begin
     id 8 
     name rtibia
     direction -0.34202 -0.939693 0   
     length 7.61056   
     axis 0 0 -20   XYZ
    dof rx
    limits (-10.0 170.0)
 end
 begin
     id 9 
     name rfoot
     direction -0.12616 -0.346623 0.929482   
     length 2.46372  
     axis -90 -7.62852e-016 -20   XYZ
    dof rx rz
    limits (-45.0 90.0)
           (-20.0 70.0)
  end
  begin
     id 10 
     name rtoes
     direction -1.53531e-011 -4.22004e-011 1   
     length 1.21611   
     axis -90 -7.62852e-016 -20   XYZ
    dof rx
    limits (-90.0 20.0)
  end
  begin
     id 11 
     name lowerback
     direction -0.000778023 0.997293 -0.0735223   
     length 2.06139   
     axis 0 0 0   XYZ
    dof rx ry rz
    limits (-20.0 45.0)
           (-30.0 30.0)
           (-30.0 30.0)
  end
  begin
     id 12 
     name upperback
     direction 0.0222598 0.999722 -0.0078355   
     length 2.06383   
     axis 0 0 0   XYZ
    dof rx ry rz
    limits (-20.0 45.0)
           (-30.0 30.0)
           (-30.0 30.0)
  end
  begin
     id 13 
     name thorax
     direction 0.0219654 0.999405 0.0265994   
     length 2.07163   
     axis 0 0 0   XYZ
    dof rx ry rz
    limits (-20.0 45.0)
           (-30.0 30.0)
           (-30.0 30.0)
  end
  begin
     id 14 
     name lowerneck
     direction 0.0213282 0.988147 0.15202   
     length 1.75969   
     axis 0 0 0   XYZ
    dof rx ry rz
    limits (-20.0 45.0)
           (-30.0 30.0)
           (-30.0 30.0)
  end
  begin
     id 15 
     name upperneck
     direction -0.0546456 0.982624 -0.177379   
     length 1.79244   
     axis 0 0 0   XYZ
    dof rx ry rz
    limits (-20.0 45.0)
           (-30.0 30.0)
           (-30.0 30.0)
  end
  begin
     id 16
     name head
     direction -0.0199987 0.996855 -0.076686  
     length 1.80555  
     axis 0 0 0   XYZ
    dof rx ry rz
    limits (-20.0 45.0)
           (-30.0 30.0)
           (-30.0 30.0)
  end
  begin
     id 17 
     name lclavicle
     direction 0.929565 0.363219 -0.063096  
     length 3.55722  
     axis 0 0 0   XYZ
    dof ry rz
    limits (-20.0 10.0)
           (0.0 20.0)
  end
  begin
     id 18 
     name lhumerus
     direction 1 -4.48993e-011 -2.36203e-027   
     length 4.92785   
     axis 180 -30 -90   XYZ
    dof rx ry rz
    limits (-60.0 90.0)
           (-90.0 90.0)
           (-90.0 90.0)
  end
  begin
     id 19
     name lradius
     direction 1 -4.48947e-011 2.02997e-027   
     length 3.44052   
     axis 180 -30 -90   XYZ
    dof rx
    limits (-10.0 170.0)
  end
  begin
     id 20
     name lwrist
     direction 1 -4.48962e-011 1.45991e-027   
     length 1.72026   
     axis 1.49639e-024 90 90   XYZ
    dof ry
    limits (-180.0 0.0)
 end
  begin
     id 21 
     name lhand
     direction 1 -4.48984e-011 2.91906e-027   
     length 0.654326   
     axis -1.863e-015 90 90   XYZ
    dof rx rz
    limits (-90.0 90.0)
           (-45.0 45.0)
  end
  begin
     id 22 
     name lfingers
     direction 1 -4.48961e-011 5.83968e-027   
     length 0.527534   
     axis -3.72598e-015 90 90   XYZ
    dof rx
    limits (0.0 90.0)
  end
  begin
     id 23
     name lthumb
     direction 0.707107 -6.34963e-011 0.707107   
     length 0.757437   
     axis -90 45 -6.68868e-015   XYZ
    dof rx rz
    limits (-45.0 45.0)
           (-45.0 45.0)
  end
  begin
     id 24 
     name rclavicle
     direction -0.902944 0.422599 -0.0781198   
     length 3.54432  
     axis 0 0 0   XYZ 
    dof ry rz
    limits (-10.0 20.0)
           (-20.0 0.0)
  end
  begin
     id 25 
     name rhumerus
     direction -1 -4.48953e-011 -4.75835e-028  
     length 5.09181   
     axis 180 30 90   XYZ
    dof rx ry rz
    limits (-90.0 60.0)
           (-90.0 90.0)
           (-90.0 90.0)
  end
  begin
     id 26 
     name rradius
     direction -1 -4.48986e-011 -3.25889e-027   
     length 3.49865   
     axis 180 30 90   XYZ
    dof rx
    limits (-10.0 170.0)
  end
  begin
     id 27 
     name rwrist
     direction -1 -4.48963e-011 1.45989e-027   
     length 1.74933   
     axis 1.49639e-024 -90 -90   XYZ
    dof ry
    limits (-180.0 0.0)
  end
  begin
     id 28
     name rhand
     direction -1 -4.49003e-011 2.91844e-027   
     length 0.66641   
     axis -1.863e-015 -90 -90   XYZ
    dof rx rz
    limits (-90.0 90.0)
           (-45.0 45.0)
  end
  begin
     id 29
     name rfingers
     direction -1 -4.48973e-011 5.83886e-027   
     length 0.537277   
     axis -3.72598e-015 -90 -90   XYZ
    dof rx
    limits (0.0 90.0)
  end
  begin
     id 30
     name rthumb
     direction -0.707107 -6.34976e-011 0.707107   
     length 0.771425   
     axis -90 -45 6.68868e-015   XYZ
    dof rx rz
    limits (-45.0 45.0)
           (-45.0 45.0)
  end
:hierarchy
  begin
    root lhipjoint rhipjoint lowerback
    lhipjoint lfemur
    lfemur ltibia
    ltibia lfoot
    lfoot ltoes
    rhipjoint rfemur
    rfemur rtibia
    rtibia rfoot
    rfoot rtoes
    lowerback upperback
    upperback thorax
    thorax lowerneck lclavicle rclavicle
    lowerneck upperneck
    upperneck head
    lclavicle lhumerus
    lhumerus lradius
    lradius lwrist
    lwrist lhand lthumb
    lhand lfingers
    rclavicle rhumerus
    rhumerus rradius
    rradius rwrist
    rwrist rhand rthumb
    rhand rfingers
  end

#!OML:ASF H:\LiuWeirdWalks\Patient Classification 1\Patient 1\Session 1\male.ASF
:FULLY-SPECIFIED
:DEGREES
288
root 0.702017 17.8564 -25.396 4.01838 13.5085 2.62888
lowerback 2.95258 -3.38158 -12.0268
upperback 0.00847935 -4.8833 3.56288
thorax -0.326783 -2.44172 10.7004
lowerneck -27.9832 2.78176 -3.50381
upperneck 26.4863 6.75759 -3.52652
head 13.6895 2.02201 0.493472
rclavicle 1.25731e-014 2.14687e-014
rhumerus -28.26 4.00774 -76.5621
rradius 28.8088
rwrist -7.53108
rhand -15.9583 -2.7495
rfingers 7.12502
rthumb 10.2404 -32.4802
lclavicle 1.25731e-014 2.14687e-014
lhumerus -42.1696 21.7382 80.327
lradius 25.1124
lwrist 4.04277
lhand -15.2927 1.49784
lfingers 7.12502
lthumb 10.8825 31.1959
rfemur -30.0666 -5.9092 16.2901
rtibia 35.4985
rfoot -1.46517 -16.7275
rtoes -0.631095
lfemur 18.755 -8.77347 -21.4715
ltibia 4.61416
lfoot -0.603408 7.43211
ltoes -25.869
289
root 0.677643 17.863 -25.3137 4.06083 13.4693 2.53511
lowerback 2.91689 -3.42235 -11.8877
upperback -0.00913277 -4.92925 3.62522
thorax -0.318827 -2.46514 10.6856
lowerneck -28.1299 2.81307 -3.37701
upperneck 26.5442 6.77068 -3.56148
head 13.7492 2.03001 0.464232
rclavicle -1.07344e-014 -1.82882e-014
rhumerus -28.255 3.99386 -76.5975
rradius 28.8473
rwrist -7.50716
rhand -15.9644 -2.74116
rfingers 7.12502
rthumb 10.2345 -32.4722
lclavicle -1.07344e-014 -1.82882e-014
lhumerus -41.9787 21.499 80.5542
lradius 25.1323
lwrist 4.21737
lhand -15.1858 1.44076
lfingers 7.12502
lthumb 10.9856 31.1333
rfemur -29.9397 -5.80926 16.5545
rtibia 35.6117
rfoot -1.74268 -16.9208
rtoes -0.374739
lfemur 19.0253 -8.88277 -21.236
ltibia 4.35283
lfoot -0.115945 7.20564
ltoes -26.2861
290
root 0.652078 17.8701 -25.2318 4.10307 13.4161 2.38543
lowerback 2.87721 -3.46722 -11.7142
upperback -0.0568161 -4.98025 3.70467
thorax -0.340679 -2.48761 10.6706
lowerneck -28.1248 2.77011 -3.41179
upperneck 26.5326 6.71567 -3.54028
head 13.7409 2.00628 0.46731
rclavicle -2.88238e-015 -2.38542e-015
rhumerus -28.3113 4.01542 -76.6464
rradius 28.8988
rwrist -7.48052
rhand -15.9812 -2.72534
rfingers 7.12502
rthumb 10.2183 -32.4572
lclavicle -2.88238e-015 -2.38542e-015
lhumerus -41.8351 21.1998 80.7907
lradius 25.1725
lwrist 4.41155
lhand -15.0938 1.42835
lfingers 7.12502
lthumb 11.0743 31.1162
rfemur -29.8085 -5.63464 16.8766
rtibia 35.6865
rfoot -1.99095 -17.1596
rtoes -0.185822
lfemur 19.2073 -8.97478 -20.9303
ltibia 4.22911
lfoot 0.325208 6.98304
ltoes -26.6968
291
root 0.625833 17.8773 -25.15 4.13535 13.3375 2.20457
lowerback 2.85027 -3.50713 -11.5287
upperback -0.126843 -5.02643 3.79024
thorax -0.395299 -2.50436 10.6574
lowerneck -28.0297 2.68935 -3.53915
upperneck 26.4525 6.62326 -3.47883
head 13.6806 1.96751 0.492226
rclavicle -4.30369e-014 -2.62396e-014
rhumerus -28.4216 4.06002 -76.7126
rradius 28.9644
rwrist -7.45726
rhand -16.0035 -2.6959
rfingers 7.12502
rthumb 10.1968 -32.4288
lclavicle -4.30369e-014 -2.62396e-014
lhumerus -41.7339 20.8547 81.0256
lradius 25.2376
lwrist 4.59691
lhand -14.9936 1.44678
lfingers 7.12502
lthumb 11.1709 31.1294
rfemur -29.6622 -5.39896 17.2271
rtibia 35.737
rfoot -2.23413 -17.4142
rtoes -0.0361928
lfemur 19.3209 -9.03763 -20.5884
ltibia 4.24612
lfoot 0.712737 6.7719
ltoes -27.121
292
root 0.599335 17.8842 -25.069 4.16678 13.2321 2.01404
lowerback 2.83259 -3.53951 -11.3469
upperback -0.204085 -5.06379 3.88311
thorax -0.4642 -2.51551 10.6557
lowerneck -27.9684 2.51329 -3.83555
upperneck 26.4196 6.45099 -3.34516
head 13.6387 1.8846 0.558519
rclavicle -4.72114e-014 -2.14687e-014
rhumerus -28.5589 4.13868 -76.7786
rradius 29.0545
rwrist -7.46643
rhand -16.0145 -2.65109
rfingers 7.12502
rthumb 10.1861 -32.3845
lclavicle -4.72114e-014 -2.14687e-014
lhumerus -41.6359 20.4949 81.2752
lradius 25.3188
lwrist 4.75795
lhand -14.9154 1.52054
lfingers 7.12502
lthumb 11.2464 31.1991
rfemur -29.5163 -5.12262 17.581
rtibia 35.7805
rfoot -2.48077 -17.6576
rtoes 0.0891074
lfemur 19.3862 -9.07103 -20.2372
ltibia 4.35413
lfoot 1.07492 6.56707
ltoes -27.5162
293
root 0.572376 17.8908 -24.9887 4.20755 13.1218 1.84045
lowerback 2.82246 -3.65608 -11.1383
upperback -0.273294 -5.21308 4.03012
thorax -0.496237 -2.58672 10.6965
lowerneck -28.0152 2.40456 -4.33636
upperneck 26.3277 6.44892 -3.15327
head 13.5844 1.86298 0.714909
rclavicle -4.18939e-014 2.78299e-014
rhumerus -28.5869 4.56162 -76.8477
rradius 29.1503
rwrist -7.55676
rhand -16.0095 -2.61856
rfingers 7.12502
rthumb 10.191 -32.3517
lclavicle -4.18939e-014 2.78299e-014
lhumerus -41.5659 20.4422 81.5171
lradius 25.4408
lwrist 4.8762
lhand -14.82 1.58204
lfingers 7.12502
lthumb 11.3384 31.2555
rfemur -29.379 -4.8336 17.9106
rtibia 35.8322
rfoot -2.73794 -17.8849
rtoes 0.195983
lfemur 19.4443 -9.09972 -19.9044
ltibia 4.45769
lfoot 1.4589 6.36369
ltoes -27.8405
294
root 0.546234 17.8967 -24.9086 4.25139 13.0069 1.70938
lowerback 2.81615 -3.74292 -10.982
upperback -0.295353 -5.32323 4.16505
thorax -0.487461 -2.64323 10.753
lowerneck -28.354 2.28922 -4.78421
upperneck 26.3915 6.44472 -2.94866
head 13.6545 1.8353 0.872949
rclavicle 5.51627e-015 -2.8625e-014
rhumerus -28.5393 4.89764 -76.8824
rradius 29.2549
rwrist -7.65609
rhand -16.001 -2.58409
rfingers 7.12502
rthumb 10.1992 -32.3169
lclavicle 5.51627e-015 -2.8625e-014
lhumerus -41.3564 20.3407 81.8314
lradius 25.5606
lwrist 4.97428
lhand -14.7544 1.65092
lfingers 7.12502
lthumb 11.4016 31.3209
rfemur -29.2395 -4.56672 18.1874
rtibia 35.9
rfoot -3.01653 -18.0695
rtoes 0.288281
lfemur 19.5318 -9.12473 -19.6279
ltibia 4.51822
lfoot 1.88473 6.16249
ltoes -28.1213
295
root 0.52123 17.902 -24.8284 4.2865 12.8737 1.61031
lowerback 2.80453 -3.89995 -10.7877
upperback -0.279477 -5.52439 4.338
thorax -0.410958 -2.75266 10.825
lowerneck -28.8363 2.259 -5.34704
upperneck 26.509 6.61971 -2.70013
head 13.7674 1.87405 1.10496
rclavicle 1.99779e-014 -1.90833e-014
rhumerus -28.3485 5.52294 -76.9069
rradius 29.3594
rwrist -7.80838
rhand -15.982 -2.56243
rfingers 7.12502
rthumb 10.2175 -32.2943
lclavicle 1.99779e-014 -1.90833e-014
lhumerus -41.1285 20.54 82.1462
lradius 25.7173
lwrist 5.02766
lhand -14.7114 1.69088
lfingers 7.12502
lthumb 11.4431 31.3586
rfemur -29.0882 -4.32167 18.4256
rtibia 35.9817
rfoot -3.30105 -18.2022
rtoes 0.337459
lfemur 19.6658 -9.1324 -19.4001
ltibia 4.52459
lfoot 2.34799 5.96835
ltoes -28.37
296
root 0.497271 17.9069 -24.748 4.32338 12.7246 1.53754
lowerback 2.77532 -4.03871 -10.6572
upperback -0.313607 -5.70332 4.4768
thorax -0.381035 -2.84485 10.8977
lowerneck -29.034 2.2776 -5.67105
upperneck 26.6051 6.76907 -2.55317
head 13.8267 1.91781 1.24905
rclavicle 2.18663e-014 3.73715e-014
rhumerus -28.3068 6.05449 -76.9642
rradius 29.4723
rwrist -7.90969
rhand -15.974 -2.55689
rfingers 7.12502
rthumb 10.2252 -32.2884
lclavicle 2.18663e-014 3.73715e-014
lhumerus -41.0164 20.6136 82.4037
lradius 25.9039
lwrist 5.10982
lhand -14.6777 1.69357
lfingers 7.12502
lthumb 11.4756 31.3595
rfemur -28.9371 -4.10224 18.6346
rtibia 36.0696
rfoot -3.5832 -18.292
rtoes 0.351993
lfemur 19.8207 -9.12434 -19.2131
ltibia 4.49865
lfoot 2.83867 5.78625
ltoes -28.5751
297
root 0.474091 17.9114 -24.6678 4.35282 12.5567 1.46282
lowerback 2.7305 -4.11845 -10.5452
upperback -0.340456 -5.80232 4.56789
thorax -0.359125 -2.89602 10.9281
lowerneck -29.0838 2.33795 -5.71682
upperneck 26.6406 6.86703 -2.5053
head 13.8454 1.95957 1.29591
rclavicle 6.22196e-014 -3.33958e-014
rhumerus -28.3367 6.35731 -77.0327
rradius 29.6038
rwrist -7.96334
rhand -15.9697 -2.55329
rfingers 7.12502
rthumb 10.2294 -32.2846
lclavicle 6.22196e-014 -3.33958e-014
lhumerus -40.8623 20.4878 82.6559
lradius 26.0917
lwrist 5.2184
lhand -14.6498 1.63844
lfingers 7.12502
lthumb 11.5025 31.3029
rfemur -28.7776 -3.89617 18.8471
rtibia 36.1496
rfoot -3.85554 -18.3536
rtoes 0.336871
lfemur 19.9608 -9.09489 -19.0339
ltibia 4.52459
lfoot 3.30979 5.62063
ltoes -28.8085
298
root 0.451282 17.9158 -24.5878 4.38408 12.364 1.3778
lowerback 2.66952 -4.13351 -10.4631
upperback -0.388246 -5.81482 4.61011
thorax -0.375686 -2.89936 10.9235
lowerneck -28.9319 2.36198 -5.60684
upperneck 26.5845 6.83333 -2.50731
head 13.7953 1.96219 1.26737
rclavicle -3.57812e-015 1.11319e-014
rhumerus -28.4927 6.41449 -77.1232
rradius 29.7501
rwrist -7.97152
rhand -15.9695 -2.54204
rfingers 7.12502
rthumb 10.2296 -32.2733
lclavicle -3.57812e-015 1.11319e-014
lhumerus -40.7225 20.1247 82.8871
lradius 26.2869
lwrist 5.37486
lhand -14.6368 1.58109
lfingers 7.12502
lthumb 11.5151 31.2448
rfemur -28.6214 -3.69334 19.0743
rtibia 36.2159
rfoot -4.12007 -18.397
rtoes 0.321105
lfemur 20.0581 -9.0371 -18.8497
ltibia 4.62914
lfoot 3.75135 5.46993
ltoes -29.0688
299
root 0.428169 17.9203 -24.5087 4.41848 12.1642 1.26492
lowerback 2.61333 -4.0878 -10.38
upperback -0.446011 -5.74661 4.61104
thorax -0.43133 -2.85845 10.8757
lowerneck -28.7142 2.3066 -5.4427
upperneck 26.4535 6.65199 -2.51467
head 13.705 1.91085 1.1972
rclavicle -1.50579e-014 -1.11319e-014
rhumerus -28.734 6.24384 -77.2298
rradius 29.9073
rwrist -7.94535
rhand -15.9688 -2.52859
rfingers 7.12502
rthumb 10.2302 -32.2598
lclavicle -1.50579e-014 -1.11319e-014
lhumerus -40.5678 19.5335 83.1135
lradius 26.498
lwrist 5.59829
lhand -14.629 1.49888
lfingers 7.12502
lthumb 11.5225 31.1622
rfemur -28.4712 -3.49365 19.3377
rtibia 36.2655
rfoot -4.37759 -18.4429
rtoes 0.323899
lfemur 20.1039 -8.96822 -18.6347
ltibia 4.81037
lfoot 4.16001 5.32825
ltoes -29.362
300
root 0.405538 17.9247 -24.4298 4.45721 11.9565 1.15233
lowerback 2.55105 -3.97169 -10.3166
upperback -0.49785 -5.58415 4.55988
thorax -0.505277 -2.76857 10.783
lowerneck -28.4921 2.14387 -5.23293
upperneck 26.343 6.2923 -2.5018
head 13.6256 1.78888 1.09384
rclavicle 7.95139e-016 -1.43125e-014
rhumerus -29.0458 5.82507 -77.3416
rradius 30.0862
rwrist -7.92447
rhand -15.9832 -2.52506
rfingers 7.12502
rthumb 10.2164 -32.257
lclavicle 7.95139e-016 -1.43125e-014
lhumerus -40.356 18.6873 83.3572
lradius 26.7091
lwrist 5.8864
lhand -14.618 1.43114
lfingers 7.12502
lthumb 11.5332 31.0938
rfemur -28.3195 -3.31346 19.6042
rtibia 36.3023
rfoot -4.63916 -18.4756
rtoes 0.35587
lfemur 20.1269 -8.88895 -18.4257
ltibia 5.03058
lfoot 4.55592 5.19513
ltoes -29.6645
301
root 0.383097 17.929 -24.3513 4.50493 11.74 1.04754
lowerback 2.48523 -3.90689 -10.1965
upperback -0.508768 -5.48727 4.54945
thorax -0.517262 -2.71849 10.6982
lowerneck -28.5551 2.02402 -5.15464
upperneck 26.306 6.07731 -2.47308
head 13.6265 1.70884 1.05147
rclavicle -3.18552e-014 -2.54444e-014
rhumerus -29.209 5.65509 -77.4314
rradius 30.2732
rwrist -8.00532
rhand -16.0081 -2.55939
rfingers 7.12502
rthumb 10.1924 -32.2925
lclavicle -3.18552e-014 -2.54444e-014
lhumerus -40.0751 18.0598 83.6379
lradius 26.9464
lwrist 6.19272
lhand -14.61 1.38138
lfingers 7.12502
lthumb 11.5409 31.0436
rfemur -28.1721 -3.14448 19.8656
rtibia 36.3295
rfoot -4.90132 -18.5031
rtoes 0.419058
lfemur 20.1319 -8.79985 -18.2263
ltibia 5.26782
lfoot 4.94307 5.06986
ltoes -29.9417
